<svg width="32" height="32" viewBox="0 0 32 32" fill="currentColor"
	xmlns="http://www.w3.org/2000/svg">
	<g clip-path="url(#clip0_116_2)">
		<path d="M24.3188 7.68125C23.775 7.1375 23.3813 6.6 23.0375 5.90625C22.7438 5.26875 22.4938 4.575 22.35 3.8875C21.1688 4.525 20.0375 5.26875 18.9062 6.15C17.725 7.0375 16.6438 8.01875 15.5063 9.10625C14.125 10.4875 12.85 12.75 11.9625 14.0312H6.00625L0 19.9875H6.00625L9.99375 16C9.30625 17.525 7.975 21.9563 7.975 22.0063L9.99375 24.025C10.0437 24.075 14.475 22.7438 16 22.0063L12.0125 25.9937V32L18.0187 25.9937V19.9875C19.3 19.1 21.5125 17.8188 22.9438 16.4438C24.025 15.3625 25.0625 14.1812 25.9 13.0437C26.7875 11.8625 27.525 10.7313 28.1625 9.6C27.425 9.45 26.7812 9.20625 26.0938 8.9125C25.45 8.6125 24.8625 8.21875 24.3188 7.68125ZM32 0C32 0 31.8 0.7375 31.4062 2.11875C31.0125 3.5 30.325 5.26875 29.2875 7.4375C27.9063 7.2875 26.725 6.8 25.9875 6.0125C25.25 5.225 24.7063 4.14375 24.6063 2.7125C26.775 1.68125 28.4937 0.9375 29.875 0.54375C31.2625 0.15 32 0 32 0Z" fill="currentColor"/>
	</g>
	<defs>
		<clipPath id="clip0_116_2">
			<rect width="32" height="32" fill="currentColor"/>
		</clipPath>
	</defs>
</svg>
