<svg width="1510" height="805" viewBox="0 0 1510 805" fill="none" xmlns="http://www.w3.org/2000/svg">
<ellipse cx="653.967" cy="210.879" rx="0.354565" ry="0.573054" fill="#6F6F6F"/>
<ellipse cx="220.558" cy="337.189" rx="0.354565" ry="0.573054" fill="#6F6F6F"/>
<ellipse cx="62.758" cy="31.7696" rx="0.354565" ry="0.573054" fill="#6F6F6F"/>
<ellipse cx="828.589" cy="164.271" rx="0.531847" ry="0.573054" fill="#6F6F6F"/>
<ellipse cx="395.181" cy="290.58" rx="0.531847" ry="0.573054" fill="#6F6F6F"/>
<ellipse cx="643.507" cy="497.406" rx="0.531847" ry="0.573054" fill="#6F6F6F"/>
<ellipse cx="485.707" cy="191.987" rx="0.531847" ry="0.573054" fill="#6F6F6F"/>
<ellipse cx="210.098" cy="623.715" rx="0.531847" ry="0.573054" fill="#6F6F6F"/>
<ellipse cx="730.73" cy="468.944" rx="0.531847" ry="0.764071" fill="#6F6F6F"/>
<ellipse cx="297.321" cy="595.254" rx="0.531847" ry="0.764071" fill="#6F6F6F"/>
<ellipse cx="0.533144" cy="0.56554" rx="0.533144" ry="0.56554" transform="matrix(0.938465 -0.345373 0.302177 0.953252 927.747 591.261)" fill="#6F6F6F"/>
<ellipse cx="0.533144" cy="0.56554" rx="0.533144" ry="0.56554" transform="matrix(0.938465 -0.345373 0.302177 0.953252 494.339 717.571)" fill="#6F6F6F"/>
<ellipse cx="619.751" cy="437.236" rx="0.531847" ry="0.382036" fill="#6F6F6F"/>
<ellipse cx="461.951" cy="131.817" rx="0.531847" ry="0.382036" fill="#6F6F6F"/>
<ellipse cx="186.343" cy="563.545" rx="0.531847" ry="0.382036" fill="#6F6F6F"/>
<ellipse cx="28.5426" cy="258.126" rx="0.531847" ry="0.382036" fill="#6F6F6F"/>
<ellipse cx="765.654" cy="487.282" rx="0.354565" ry="0.764071" fill="#6F6F6F"/>
<ellipse cx="332.246" cy="613.591" rx="0.354565" ry="0.764071" fill="#6F6F6F"/>
<ellipse cx="894.716" cy="662.828" rx="0.709129" ry="0.573054" fill="#6F6F6F"/>
<ellipse cx="461.307" cy="789.137" rx="0.709129" ry="0.573054" fill="#6F6F6F"/>
<ellipse cx="0.799716" cy="1.13108" rx="0.799716" ry="1.13108" transform="matrix(0.938465 -0.345373 0.302177 0.953252 913.848 441.664)" fill="#6F6F6F"/>
<ellipse cx="0.799716" cy="1.13108" rx="0.799716" ry="1.13108" transform="matrix(0.938465 -0.345373 0.302177 0.953252 480.439 567.973)" fill="#6F6F6F"/>
<ellipse cx="0.799716" cy="1.13108" rx="0.799716" ry="1.13108" transform="matrix(0.938465 -0.345373 0.302177 0.953252 322.639 262.555)" fill="#6F6F6F"/>
<ellipse cx="1452.98" cy="663.974" rx="0.886412" ry="1.33712" fill="#6F6F6F"/>
<ellipse cx="0.828635" cy="1.09345" rx="0.828635" ry="1.09345" transform="matrix(0.627879 0.778311 -0.729876 0.68358 1416.46 511.821)" fill="#6F6F6F"/>
<ellipse cx="0.843063" cy="1.07366" rx="0.843063" ry="1.07366" transform="matrix(0.412349 0.911026 -0.885225 0.465163 1369.6 398.81)" fill="#6F6F6F"/>
<ellipse cx="0.853412" cy="1.05902" rx="0.853412" ry="1.05902" transform="matrix(-0.12712 0.991887 -0.989111 -0.147168 1448.69 392.876)" fill="#6F6F6F"/>
<ellipse cx="1184.22" cy="776.865" rx="0.886412" ry="1.14611" fill="#6F6F6F"/>
<ellipse cx="1387.21" cy="238.959" rx="0.709129" ry="1.14611" fill="#6F6F6F"/>
<ellipse cx="1061.54" cy="597.309" rx="0.886412" ry="1.14611" fill="#6F6F6F"/>
<ellipse cx="628.13" cy="723.618" rx="0.886412" ry="1.14611" fill="#6F6F6F"/>
<ellipse cx="0.53024" cy="0.568263" rx="0.53024" ry="0.568263" transform="matrix(0.979092 0.203417 -0.176157 0.984362 759.761 222.812)" fill="#6F6F6F"/>
<ellipse cx="0.53024" cy="0.568263" rx="0.53024" ry="0.568263" transform="matrix(0.979092 0.203417 -0.176157 0.984362 326.353 349.121)" fill="#6F6F6F"/>
<ellipse cx="0.53024" cy="0.568263" rx="0.53024" ry="0.568263" transform="matrix(0.979092 0.203417 -0.176157 0.984362 168.553 43.7024)" fill="#6F6F6F"/>
<ellipse cx="0.53024" cy="0.568263" rx="0.53024" ry="0.568263" transform="matrix(0.979092 0.203417 -0.176157 0.984362 954.916 191.416)" fill="#6F6F6F"/>
<ellipse cx="0.53024" cy="0.568263" rx="0.53024" ry="0.568263" transform="matrix(0.979092 0.203417 -0.176157 0.984362 521.508 317.725)" fill="#6F6F6F"/>
<ellipse cx="0.53024" cy="0.568263" rx="0.53024" ry="0.568263" transform="matrix(0.979092 0.203417 -0.176157 0.984362 363.708 12.3062)" fill="#6F6F6F"/>
<ellipse cx="1191.84" cy="549.936" rx="0.709129" ry="0.382036" fill="#6F6F6F"/>
<ellipse cx="755.017" cy="528.351" rx="0.709129" ry="0.573054" fill="#6F6F6F"/>
<ellipse cx="321.609" cy="654.66" rx="0.709129" ry="0.573054" fill="#6F6F6F"/>
<ellipse cx="865.109" cy="383.177" rx="0.531847" ry="0.955089" fill="#6F6F6F"/>
<ellipse cx="431.701" cy="509.487" rx="0.531847" ry="0.955089" fill="#6F6F6F"/>
<ellipse cx="273.901" cy="204.068" rx="0.531847" ry="0.955089" fill="#6F6F6F"/>
<ellipse cx="1319.84" cy="200.183" rx="0.354565" ry="0.955089" fill="#6F6F6F"/>
<ellipse cx="0.533144" cy="0.84831" rx="0.533144" ry="0.84831" transform="matrix(0.938465 -0.345373 0.302177 0.953252 1013.57 550.044)" fill="#6F6F6F"/>
<ellipse cx="0.533144" cy="0.84831" rx="0.533144" ry="0.84831" transform="matrix(0.938465 -0.345373 0.302177 0.953252 580.164 676.353)" fill="#6F6F6F"/>
<ellipse cx="1367.35" cy="665.884" rx="0.354565" ry="0.573054" fill="#6F6F6F"/>
<ellipse cx="0.552423" cy="0.820085" rx="0.552423" ry="0.820085" transform="matrix(0.627879 0.778311 -0.729876 0.68358 1359.02 444.093)" fill="#6F6F6F"/>
<ellipse cx="0.53925" cy="0.839581" rx="0.53925" ry="0.839581" transform="matrix(0.84911 0.528216 -0.472304 0.881436 1280.78 405.693)" fill="#6F6F6F"/>
<ellipse cx="0.568941" cy="0.794269" rx="0.568941" ry="0.794269" transform="matrix(-0.12712 0.991887 -0.989111 -0.147168 1458.24 301.708)" fill="#6F6F6F"/>
<ellipse cx="0.53024" cy="0.568263" rx="0.53024" ry="0.568263" transform="matrix(0.979092 0.203417 -0.176157 0.984362 919.642 253.128)" fill="#6F6F6F"/>
<ellipse cx="0.53024" cy="0.568263" rx="0.53024" ry="0.568263" transform="matrix(0.979092 0.203417 -0.176157 0.984362 486.234 379.438)" fill="#6F6F6F"/>
<ellipse cx="0.53024" cy="0.568263" rx="0.53024" ry="0.568263" transform="matrix(0.979092 0.203417 -0.176157 0.984362 328.434 74.0186)" fill="#6F6F6F"/>
<ellipse cx="1167.91" cy="617.747" rx="0.531847" ry="0.573054" fill="#6F6F6F"/>
<ellipse cx="1244.32" cy="184.328" rx="0.354565" ry="0.382036" fill="#6F6F6F"/>
<ellipse cx="1127.84" cy="105.628" rx="0.531847" ry="0.764071" fill="#6F6F6F"/>
<ellipse cx="0.53024" cy="0.568263" rx="0.53024" ry="0.568263" transform="matrix(0.979092 0.203417 -0.176157 0.984362 761.764 211.625)" fill="#6F6F6F"/>
<ellipse cx="0.53024" cy="0.568263" rx="0.53024" ry="0.568263" transform="matrix(0.979092 0.203417 -0.176157 0.984362 328.355 337.934)" fill="#6F6F6F"/>
<ellipse cx="0.53024" cy="0.568263" rx="0.53024" ry="0.568263" transform="matrix(0.979092 0.203417 -0.176157 0.984362 170.555 32.5151)" fill="#6F6F6F"/>
<ellipse cx="0.53024" cy="0.568263" rx="0.53024" ry="0.568263" transform="matrix(0.979092 0.203417 -0.176157 0.984362 957.119 179.11)" fill="#6F6F6F"/>
<ellipse cx="0.53024" cy="0.568263" rx="0.53024" ry="0.568263" transform="matrix(0.979092 0.203417 -0.176157 0.984362 523.71 305.419)" fill="#6F6F6F"/>
<ellipse cx="0.53024" cy="0.568263" rx="0.53024" ry="0.568263" transform="matrix(0.979092 0.203417 -0.176157 0.984362 365.91 0)" fill="#6F6F6F"/>
<ellipse cx="1191.84" cy="537.329" rx="0.709129" ry="0.382036" fill="#6F6F6F"/>
<ellipse cx="755.017" cy="515.744" rx="0.709129" ry="0.573054" fill="#6F6F6F"/>
<ellipse cx="321.609" cy="642.053" rx="0.709129" ry="0.573054" fill="#6F6F6F"/>
<ellipse cx="0.53024" cy="0.568263" rx="0.53024" ry="0.568263" transform="matrix(0.979092 0.203417 -0.176157 0.984362 850.265 348.948)" fill="#6F6F6F"/>
<ellipse cx="0.53024" cy="0.568263" rx="0.53024" ry="0.568263" transform="matrix(0.979092 0.203417 -0.176157 0.984362 416.856 475.257)" fill="#6F6F6F"/>
<ellipse cx="0.53024" cy="0.568263" rx="0.53024" ry="0.568263" transform="matrix(0.979092 0.203417 -0.176157 0.984362 259.056 169.838)" fill="#6F6F6F"/>
<ellipse cx="1319.84" cy="187.957" rx="0.354565" ry="0.573054" fill="#6F6F6F"/>
<ellipse cx="0.533144" cy="0.56554" rx="0.533144" ry="0.56554" transform="matrix(0.938465 -0.345373 0.302177 0.953252 1009.98 538.723)" fill="#6F6F6F"/>
<ellipse cx="0.533144" cy="0.56554" rx="0.533144" ry="0.56554" transform="matrix(0.938465 -0.345373 0.302177 0.953252 576.575 665.032)" fill="#6F6F6F"/>
<ellipse cx="1367.35" cy="653.659" rx="0.354565" ry="0.573054" fill="#6F6F6F"/>
<ellipse cx="0.552423" cy="0.546723" rx="0.552423" ry="0.546723" transform="matrix(0.627879 0.778311 -0.729876 0.68358 1367.4 436.245)" fill="#6F6F6F"/>
<ellipse cx="0.562042" cy="0.53683" rx="0.562042" ry="0.53683" transform="matrix(0.412349 0.911026 -0.885225 0.465163 1340.37 312.127)" fill="#6F6F6F"/>
<ellipse cx="0.568941" cy="0.529512" rx="0.568941" ry="0.529512" transform="matrix(-0.12712 0.991887 -0.989111 -0.147168 1469.24 303.345)" fill="#6F6F6F"/>
<ellipse cx="0.53024" cy="0.568263" rx="0.53024" ry="0.568263" transform="matrix(0.979092 0.203417 -0.176157 0.984362 761 221.909)" fill="#6F6F6F"/>
<ellipse cx="0.53024" cy="0.568263" rx="0.53024" ry="0.568263" transform="matrix(0.979092 0.203417 -0.176157 0.984362 327.591 348.218)" fill="#6F6F6F"/>
<ellipse cx="0.53024" cy="0.568263" rx="0.53024" ry="0.568263" transform="matrix(0.979092 0.203417 -0.176157 0.984362 169.791 42.7993)" fill="#6F6F6F"/>
<ellipse cx="0.53024" cy="0.568263" rx="0.53024" ry="0.568263" transform="matrix(0.979092 0.203417 -0.176157 0.984362 956.155 190.513)" fill="#6F6F6F"/>
<ellipse cx="0.53024" cy="0.568263" rx="0.53024" ry="0.568263" transform="matrix(0.979092 0.203417 -0.176157 0.984362 522.746 316.822)" fill="#6F6F6F"/>
<ellipse cx="0.53024" cy="0.568263" rx="0.53024" ry="0.568263" transform="matrix(0.979092 0.203417 -0.176157 0.984362 364.946 11.4033)" fill="#6F6F6F"/>
<ellipse cx="1192.9" cy="548.79" rx="0.354565" ry="0.764071" fill="#6F6F6F"/>
<ellipse cx="756.081" cy="527.205" rx="0.354565" ry="0.573054" fill="#6F6F6F"/>
<ellipse cx="322.672" cy="653.514" rx="0.354565" ry="0.573054" fill="#6F6F6F"/>
<ellipse cx="865.996" cy="381.649" rx="0.354565" ry="0.573054" fill="#6F6F6F"/>
<ellipse cx="432.588" cy="507.959" rx="0.354565" ry="0.573054" fill="#6F6F6F"/>
<ellipse cx="274.788" cy="202.54" rx="0.354565" ry="0.573054" fill="#6F6F6F"/>
<ellipse cx="1320.9" cy="198.845" rx="0.709129" ry="0.382036" fill="#6F6F6F"/>
<ellipse cx="0.533144" cy="0.56554" rx="0.533144" ry="0.56554" transform="matrix(0.938465 -0.345373 0.302177 0.953252 1014.23 548.598)" fill="#6F6F6F"/>
<ellipse cx="0.533144" cy="0.56554" rx="0.533144" ry="0.56554" transform="matrix(0.938465 -0.345373 0.302177 0.953252 580.822 674.907)" fill="#6F6F6F"/>
<ellipse cx="1368.41" cy="664.547" rx="0.709129" ry="0.764071" fill="#6F6F6F"/>
<ellipse cx="0.552423" cy="0.546723" rx="0.552423" ry="0.546723" transform="matrix(0.627879 0.778311 -0.729876 0.68358 1360.51 444.206)" fill="#6F6F6F"/>
<ellipse cx="0.562042" cy="0.53683" rx="0.562042" ry="0.53683" transform="matrix(0.412349 0.911026 -0.885225 0.465163 1331.8 317.896)" fill="#6F6F6F"/>
<ellipse cx="0.568941" cy="0.529512" rx="0.568941" ry="0.529512" transform="matrix(-0.12712 0.991887 -0.989111 -0.147168 1459.15 302.993)" fill="#6F6F6F"/>
<ellipse cx="0.533144" cy="0.56554" rx="0.533144" ry="0.56554" transform="matrix(0.938465 -0.345373 0.302177 0.953252 865.65 532.845)" fill="#6F6F6F"/>
<ellipse cx="0.533144" cy="0.56554" rx="0.533144" ry="0.56554" transform="matrix(0.938465 -0.345373 0.302177 0.953252 432.242 659.154)" fill="#6F6F6F"/>
<ellipse cx="988.144" cy="666.075" rx="0.531847" ry="0.382036" fill="#6F6F6F"/>
<ellipse cx="554.735" cy="792.384" rx="0.531847" ry="0.382036" fill="#6F6F6F"/>
<ellipse cx="851.282" cy="149.945" rx="0.531847" ry="0.382036" fill="#6F6F6F"/>
<ellipse cx="417.873" cy="276.254" rx="0.531847" ry="0.382036" fill="#6F6F6F"/>
<ellipse cx="663.54" cy="503.328" rx="0.354565" ry="0.764071" fill="#6F6F6F"/>
<ellipse cx="505.74" cy="197.909" rx="0.354565" ry="0.764071" fill="#6F6F6F"/>
<ellipse cx="230.131" cy="629.637" rx="0.354565" ry="0.764071" fill="#6F6F6F"/>
<ellipse cx="685.878" cy="222.34" rx="0.354565" ry="0.573054" fill="#6F6F6F"/>
<ellipse cx="252.469" cy="348.65" rx="0.354565" ry="0.573054" fill="#6F6F6F"/>
<ellipse cx="94.6689" cy="43.2308" rx="0.354565" ry="0.573054" fill="#6F6F6F"/>
<ellipse cx="862.982" cy="155.675" rx="0.531847" ry="0.382036" fill="#6F6F6F"/>
<ellipse cx="429.574" cy="281.985" rx="0.531847" ry="0.382036" fill="#6F6F6F"/>
<ellipse cx="660.349" cy="522.238" rx="1.06369" ry="1.33712" fill="#6F6F6F"/>
<ellipse cx="502.549" cy="216.82" rx="1.06369" ry="1.33712" fill="#6F6F6F"/>
<ellipse cx="226.94" cy="648.548" rx="1.06369" ry="1.33712" fill="#6F6F6F"/>
<ellipse cx="750.408" cy="413.167" rx="0.354565" ry="0.382036" fill="#6F6F6F"/>
<ellipse cx="317" cy="539.477" rx="0.354565" ry="0.382036" fill="#6F6F6F"/>
<ellipse cx="159.2" cy="234.058" rx="0.354565" ry="0.382036" fill="#6F6F6F"/>
<ellipse cx="0.533144" cy="0.56554" rx="0.533144" ry="0.56554" transform="matrix(0.938465 -0.345373 0.302177 0.953252 929.512 531.616)" fill="#6F6F6F"/>
<ellipse cx="0.533144" cy="0.56554" rx="0.533144" ry="0.56554" transform="matrix(0.938465 -0.345373 0.302177 0.953252 496.103 657.926)" fill="#6F6F6F"/>
<ellipse cx="1293.42" cy="618.894" rx="0.531847" ry="0.573054" fill="#6F6F6F"/>
<ellipse cx="651.307" cy="448.506" rx="0.531847" ry="0.573054" fill="#6F6F6F"/>
<ellipse cx="493.507" cy="143.087" rx="0.531847" ry="0.573054" fill="#6F6F6F"/>
<ellipse cx="217.899" cy="574.815" rx="0.531847" ry="0.573054" fill="#6F6F6F"/>
<ellipse cx="797.92" cy="497.979" rx="0.354565" ry="0.764071" fill="#6F6F6F"/>
<ellipse cx="364.511" cy="624.289" rx="0.354565" ry="0.764071" fill="#6F6F6F"/>
<ellipse cx="926.981" cy="673.716" rx="0.709129" ry="0.382036" fill="#6F6F6F"/>
<ellipse cx="493.573" cy="800.025" rx="0.709129" ry="0.382036" fill="#6F6F6F"/>
<ellipse cx="661.412" cy="356.244" rx="0.354565" ry="0.382036" fill="#6F6F6F"/>
<ellipse cx="503.612" cy="50.8249" rx="0.354565" ry="0.382036" fill="#6F6F6F"/>
<ellipse cx="228.004" cy="482.553" rx="0.354565" ry="0.382036" fill="#6F6F6F"/>
<ellipse cx="70.2038" cy="177.134" rx="0.354565" ry="0.382036" fill="#6F6F6F"/>
<ellipse cx="780.546" cy="138.101" rx="0.354565" ry="0.764071" fill="#6F6F6F"/>
<ellipse cx="347.138" cy="264.411" rx="0.354565" ry="0.764071" fill="#6F6F6F"/>
<ellipse cx="595.286" cy="471.237" rx="0.531847" ry="0.764071" fill="#6F6F6F"/>
<ellipse cx="437.486" cy="165.818" rx="0.531847" ry="0.764071" fill="#6F6F6F"/>
<ellipse cx="161.877" cy="597.546" rx="0.531847" ry="0.764071" fill="#6F6F6F"/>
<ellipse cx="853.409" cy="585.657" rx="0.531847" ry="0.573054" fill="#6F6F6F"/>
<ellipse cx="420" cy="711.966" rx="0.531847" ry="0.573054" fill="#6F6F6F"/>
<ellipse cx="982.471" cy="761.202" rx="0.531847" ry="0.764071" fill="#6F6F6F"/>
<ellipse cx="0.799716" cy="1.13108" rx="0.799716" ry="1.13108" transform="matrix(0.938465 -0.345373 0.302177 0.953252 1026.47 504.363)" fill="#6F6F6F"/>
<ellipse cx="0.799716" cy="1.13108" rx="0.799716" ry="1.13108" transform="matrix(0.938465 -0.345373 0.302177 0.953252 593.06 630.672)" fill="#6F6F6F"/>
<ellipse cx="1393.41" cy="627.298" rx="0.886412" ry="1.33712" fill="#6F6F6F"/>
<ellipse cx="0.828635" cy="1.09345" rx="0.828635" ry="1.09345" transform="matrix(0.627879 0.778311 -0.729876 0.68358 1403.15 439.748)" fill="#6F6F6F"/>
<ellipse cx="0.843063" cy="1.07366" rx="0.843063" ry="1.07366" transform="matrix(0.412349 0.911026 -0.885225 0.465163 1374.06 325.48)" fill="#6F6F6F"/>
<ellipse cx="0.853412" cy="1.05902" rx="0.853412" ry="1.05902" transform="matrix(-0.12712 0.991887 -0.989111 -0.147168 1490.31 334.659)" fill="#6F6F6F"/>
<ellipse cx="1149.12" cy="695.683" rx="0.886412" ry="0.955089" fill="#6F6F6F"/>
<ellipse cx="0.53024" cy="0.568263" rx="0.53024" ry="0.568263" transform="matrix(0.979092 0.203417 -0.176157 0.984362 987.798 209.271)" fill="#6F6F6F"/>
<ellipse cx="0.53024" cy="0.568263" rx="0.53024" ry="0.568263" transform="matrix(0.979092 0.203417 -0.176157 0.984362 388.004 335.58)" fill="#6F6F6F"/>
<ellipse cx="0.53024" cy="0.568263" rx="0.53024" ry="0.568263" transform="matrix(0.979092 0.203417 -0.176157 0.984362 396.589 30.1609)" fill="#6F6F6F"/>
<ellipse cx="1227.3" cy="560.824" rx="0.354565" ry="0.573054" fill="#6F6F6F"/>
<ellipse cx="590.145" cy="130.079" rx="0.709129" ry="0.764071" fill="#6F6F6F"/>
<ellipse cx="156.736" cy="256.388" rx="0.709129" ry="0.764071" fill="#6F6F6F"/>
<ellipse cx="0.79536" cy="1.13653" rx="0.79536" ry="1.13653" transform="matrix(0.979092 0.203417 -0.176157 0.984362 841.315 311.698)" fill="#6F6F6F"/>
<ellipse cx="0.79536" cy="1.13653" rx="0.79536" ry="1.13653" transform="matrix(0.979092 0.203417 -0.176157 0.984362 407.907 438.007)" fill="#6F6F6F"/>
<ellipse cx="0.79536" cy="1.13653" rx="0.79536" ry="1.13653" transform="matrix(0.979092 0.203417 -0.176157 0.984362 250.107 132.588)" fill="#6F6F6F"/>
<ellipse cx="1304.59" cy="153.956" rx="0.709129" ry="1.33712" fill="#6F6F6F"/>
<ellipse cx="0.799716" cy="1.13108" rx="0.799716" ry="1.13108" transform="matrix(0.938465 -0.345373 0.302177 0.953252 985.05 511.178)" fill="#6F6F6F"/>
<ellipse cx="0.799716" cy="1.13108" rx="0.799716" ry="1.13108" transform="matrix(0.938465 -0.345373 0.302177 0.953252 551.641 637.487)" fill="#6F6F6F"/>
<ellipse cx="1352.28" cy="619.467" rx="0.531847" ry="1.14611" fill="#6F6F6F"/>
<ellipse cx="0.828635" cy="1.09345" rx="0.828635" ry="1.09345" transform="matrix(0.627879 0.778311 -0.729876 0.68358 1381.68 400.979)" fill="#6F6F6F"/>
<ellipse cx="0.843063" cy="1.07366" rx="0.843063" ry="1.07366" transform="matrix(0.412349 0.911026 -0.885225 0.465163 1362.63 282.045)" fill="#6F6F6F"/>
<ellipse cx="0.853412" cy="1.05902" rx="0.853412" ry="1.05902" transform="matrix(-0.12712 0.991887 -0.989111 -0.147168 1503.29 291.733)" fill="#6F6F6F"/>
<ellipse cx="0.53024" cy="0.568263" rx="0.53024" ry="0.568263" transform="matrix(0.979092 0.203417 -0.176157 0.984362 887.251 166.335)" fill="#6F6F6F"/>
<ellipse cx="0.53024" cy="0.568263" rx="0.53024" ry="0.568263" transform="matrix(0.979092 0.203417 -0.176157 0.984362 453.843 292.644)" fill="#6F6F6F"/>
<ellipse cx="0.533144" cy="0.56554" rx="0.533144" ry="0.56554" transform="matrix(0.938465 -0.345373 0.302177 0.953252 1137.5 480.96)" fill="#6F6F6F"/>
<ellipse cx="695.982" cy="535.037" rx="0.886412" ry="1.14611" fill="#6F6F6F"/>
<ellipse cx="538.183" cy="229.618" rx="0.886412" ry="1.14611" fill="#6F6F6F"/>
<ellipse cx="262.574" cy="661.346" rx="0.886412" ry="1.14611" fill="#6F6F6F"/>
<ellipse cx="0.53024" cy="0.568263" rx="0.53024" ry="0.568263" transform="matrix(0.979092 0.203417 -0.176157 0.984362 828.623 337.489)" fill="#6F6F6F"/>
<ellipse cx="0.53024" cy="0.568263" rx="0.53024" ry="0.568263" transform="matrix(0.979092 0.203417 -0.176157 0.984362 395.214 463.798)" fill="#6F6F6F"/>
<ellipse cx="0.53024" cy="0.568263" rx="0.53024" ry="0.568263" transform="matrix(0.979092 0.203417 -0.176157 0.984362 237.415 158.379)" fill="#6F6F6F"/>
<ellipse cx="1296.44" cy="181.272" rx="0.709129" ry="0.764071" fill="#6F6F6F"/>
<ellipse cx="0.533144" cy="0.56554" rx="0.533144" ry="0.56554" transform="matrix(0.938465 -0.345373 0.302177 0.953252 985.918 540.356)" fill="#6F6F6F"/>
<ellipse cx="0.533144" cy="0.56554" rx="0.533144" ry="0.56554" transform="matrix(0.938465 -0.345373 0.302177 0.953252 552.509 666.665)" fill="#6F6F6F"/>
<ellipse cx="1343.95" cy="646.782" rx="0.709129" ry="0.573054" fill="#6F6F6F"/>
<ellipse cx="0.552423" cy="0.546723" rx="0.552423" ry="0.546723" transform="matrix(0.627879 0.778311 -0.729876 0.68358 1356.92 412.842)" fill="#6F6F6F"/>
<ellipse cx="0.53925" cy="0.559721" rx="0.53925" ry="0.559721" transform="matrix(0.84911 0.528216 -0.472304 0.881436 1269.36 376.879)" fill="#6F6F6F"/>
<ellipse cx="0.568941" cy="0.529512" rx="0.568941" ry="0.529512" transform="matrix(-0.12712 0.991887 -0.989111 -0.147168 1478.71 279.449)" fill="#6F6F6F"/>
<ellipse cx="757.854" cy="603.421" rx="0.354565" ry="0.764071" fill="#6F6F6F"/>
<ellipse cx="324.445" cy="729.73" rx="0.354565" ry="0.764071" fill="#6F6F6F"/>
<ellipse cx="886.738" cy="778.967" rx="0.531847" ry="0.573054" fill="#6F6F6F"/>
<ellipse cx="694.741" cy="226.352" rx="0.709129" ry="0.764071" fill="#6F6F6F"/>
<ellipse cx="261.333" cy="352.661" rx="0.709129" ry="0.764071" fill="#6F6F6F"/>
<ellipse cx="103.533" cy="47.2421" rx="0.709129" ry="0.764071" fill="#6F6F6F"/>
<ellipse cx="0.53024" cy="0.568263" rx="0.53024" ry="0.568263" transform="matrix(0.979092 0.203417 -0.176157 0.984362 1023.78 306.093)" fill="#6F6F6F"/>
<ellipse cx="0.53024" cy="0.568263" rx="0.53024" ry="0.568263" transform="matrix(0.979092 0.203417 -0.176157 0.984362 590.369 432.402)" fill="#6F6F6F"/>
<ellipse cx="0.53024" cy="0.568263" rx="0.53024" ry="0.568263" transform="matrix(0.979092 0.203417 -0.176157 0.984362 432.569 126.983)" fill="#6F6F6F"/>
<ellipse cx="1279.6" cy="648.501" rx="0.531847" ry="0.764071" fill="#6F6F6F"/>
<ellipse cx="1482.58" cy="110.595" rx="0.354565" ry="0.764071" fill="#6F6F6F"/>
<ellipse cx="1239.53" cy="136.382" rx="0.531847" ry="0.573054" fill="#6F6F6F"/>
<ellipse cx="642.443" cy="217.565" rx="0.531847" ry="0.382036" fill="#6F6F6F"/>
<ellipse cx="209.035" cy="343.874" rx="0.531847" ry="0.382036" fill="#6F6F6F"/>
<ellipse cx="51.2347" cy="38.4553" rx="0.531847" ry="0.382036" fill="#6F6F6F"/>
<ellipse cx="0.533144" cy="0.56554" rx="0.533144" ry="0.56554" transform="matrix(0.938465 -0.345373 0.302177 0.953252 1140.85 408.692)" fill="#6F6F6F"/>
<ellipse cx="0.53024" cy="0.568263" rx="0.53024" ry="0.568263" transform="matrix(0.979092 0.203417 -0.176157 0.984362 876.65 162.392)" fill="#6F6F6F"/>
<ellipse cx="0.53024" cy="0.568263" rx="0.53024" ry="0.568263" transform="matrix(0.979092 0.203417 -0.176157 0.984362 443.241 288.701)" fill="#6F6F6F"/>
<ellipse cx="676.481" cy="530.834" rx="1.24098" ry="1.14611" fill="#6F6F6F"/>
<ellipse cx="518.682" cy="225.415" rx="1.24098" ry="1.14611" fill="#6F6F6F"/>
<ellipse cx="243.073" cy="657.144" rx="1.24098" ry="1.14611" fill="#6F6F6F"/>
<ellipse cx="660.526" cy="452.517" rx="0.531847" ry="0.764071" fill="#6F6F6F"/>
<ellipse cx="502.726" cy="147.098" rx="0.531847" ry="0.764071" fill="#6F6F6F"/>
<ellipse cx="227.117" cy="578.826" rx="0.531847" ry="0.764071" fill="#6F6F6F"/>
<ellipse cx="760.159" cy="417.752" rx="0.886412" ry="0.764071" fill="#6F6F6F"/>
<ellipse cx="326.75" cy="544.061" rx="0.886412" ry="0.764071" fill="#6F6F6F"/>
<ellipse cx="168.95" cy="238.642" rx="0.886412" ry="0.764071" fill="#6F6F6F"/>
<ellipse cx="0.799716" cy="0.56554" rx="0.799716" ry="0.56554" transform="matrix(0.938465 -0.345373 0.302177 0.953252 939.886 532.615)" fill="#6F6F6F"/>
<ellipse cx="0.799716" cy="0.56554" rx="0.799716" ry="0.56554" transform="matrix(0.938465 -0.345373 0.302177 0.953252 506.477 658.924)" fill="#6F6F6F"/>
<ellipse cx="1303.17" cy="623.287" rx="0.709129" ry="0.382036" fill="#6F6F6F"/>
<ellipse cx="0.799716" cy="0.56554" rx="0.799716" ry="0.56554" transform="matrix(0.938465 -0.345373 0.302177 0.953252 820.206 562.211)" fill="#6F6F6F"/>
<ellipse cx="0.799716" cy="0.56554" rx="0.799716" ry="0.56554" transform="matrix(0.938465 -0.345373 0.302177 0.953252 386.797 688.521)" fill="#6F6F6F"/>
<ellipse cx="936.732" cy="678.109" rx="0.886412" ry="0.573054" fill="#6F6F6F"/>
<ellipse cx="503.323" cy="804.418" rx="0.886412" ry="0.573054" fill="#6F6F6F"/>
<ellipse cx="789.41" cy="141.922" rx="0.709129" ry="0.382036" fill="#6F6F6F"/>
<ellipse cx="356.001" cy="268.231" rx="0.709129" ry="0.382036" fill="#6F6F6F"/>
<ellipse cx="604.327" cy="475.248" rx="0.354565" ry="0.573054" fill="#6F6F6F"/>
<ellipse cx="446.527" cy="169.829" rx="0.354565" ry="0.573054" fill="#6F6F6F"/>
<ellipse cx="170.919" cy="601.557" rx="0.354565" ry="0.573054" fill="#6F6F6F"/>
<ellipse cx="0.533144" cy="0.84831" rx="0.533144" ry="0.84831" transform="matrix(0.938465 -0.345373 0.302177 0.953252 951.476 491.628)" fill="#6F6F6F"/>
<ellipse cx="0.533144" cy="0.84831" rx="0.533144" ry="0.84831" transform="matrix(0.938465 -0.345373 0.302177 0.953252 518.067 617.937)" fill="#6F6F6F"/>
<ellipse cx="1326.04" cy="589.095" rx="0.531847" ry="0.955089" fill="#6F6F6F"/>
<ellipse cx="1081.75" cy="657.097" rx="0.531847" ry="0.955089" fill="#6F6F6F"/>
<ellipse cx="648.34" cy="783.406" rx="0.531847" ry="0.955089" fill="#6F6F6F"/>
<ellipse cx="0.53024" cy="0.568263" rx="0.53024" ry="0.568263" transform="matrix(0.979092 0.203417 -0.176157 0.984362 830.625 326.302)" fill="#6F6F6F"/>
<ellipse cx="0.53024" cy="0.568263" rx="0.53024" ry="0.568263" transform="matrix(0.979092 0.203417 -0.176157 0.984362 397.217 452.611)" fill="#6F6F6F"/>
<ellipse cx="0.53024" cy="0.568263" rx="0.53024" ry="0.568263" transform="matrix(0.979092 0.203417 -0.176157 0.984362 239.417 147.192)" fill="#6F6F6F"/>
<ellipse cx="1296.44" cy="169.811" rx="0.709129" ry="0.764071" fill="#6F6F6F"/>
<ellipse cx="0.533144" cy="0.56554" rx="0.533144" ry="0.56554" transform="matrix(0.938465 -0.345373 0.302177 0.953252 982.5 529.574)" fill="#6F6F6F"/>
<ellipse cx="0.533144" cy="0.56554" rx="0.533144" ry="0.56554" transform="matrix(0.938465 -0.345373 0.302177 0.953252 549.092 655.883)" fill="#6F6F6F"/>
<ellipse cx="1343.95" cy="635.321" rx="0.709129" ry="0.573054" fill="#6F6F6F"/>
<ellipse cx="0.552423" cy="0.546723" rx="0.552423" ry="0.546723" transform="matrix(0.627879 0.778311 -0.729876 0.68358 1364.9 405.368)" fill="#6F6F6F"/>
<ellipse cx="0.53925" cy="0.559721" rx="0.53925" ry="0.559721" transform="matrix(0.84911 0.528216 -0.472304 0.881436 1274.64 367.012)" fill="#6F6F6F"/>
<ellipse cx="0.568941" cy="0.529512" rx="0.568941" ry="0.529512" transform="matrix(-0.12712 0.991887 -0.989111 -0.147168 1489.18 281.008)" fill="#6F6F6F"/>
<ellipse cx="789.41" cy="130.652" rx="0.709129" ry="0.573054" fill="#6F6F6F"/>
<ellipse cx="356.001" cy="256.961" rx="0.709129" ry="0.573054" fill="#6F6F6F"/>
<ellipse cx="604.327" cy="463.978" rx="0.354565" ry="0.382036" fill="#6F6F6F"/>
<ellipse cx="446.527" cy="158.559" rx="0.354565" ry="0.382036" fill="#6F6F6F"/>
<ellipse cx="170.919" cy="590.287" rx="0.354565" ry="0.382036" fill="#6F6F6F"/>
<ellipse cx="0.53024" cy="0.568263" rx="0.53024" ry="0.568263" transform="matrix(0.979092 0.203417 -0.176157 0.984362 1025.98 293.787)" fill="#6F6F6F"/>
<ellipse cx="0.53024" cy="0.568263" rx="0.53024" ry="0.568263" transform="matrix(0.979092 0.203417 -0.176157 0.984362 592.572 420.096)" fill="#6F6F6F"/>
<ellipse cx="0.53024" cy="0.568263" rx="0.53024" ry="0.568263" transform="matrix(0.979092 0.203417 -0.176157 0.984362 434.772 114.677)" fill="#6F6F6F"/>
<ellipse cx="1279.6" cy="636.085" rx="0.531847" ry="0.573054" fill="#6F6F6F"/>
<ellipse cx="1482.58" cy="98.1788" rx="0.354565" ry="0.573054" fill="#6F6F6F"/>
<ellipse cx="1239.53" cy="123.966" rx="0.531847" ry="0.764071" fill="#6F6F6F"/>
<ellipse cx="642.443" cy="205.149" rx="0.531847" ry="0.573054" fill="#6F6F6F"/>
<ellipse cx="209.035" cy="331.458" rx="0.531847" ry="0.573054" fill="#6F6F6F"/>
<ellipse cx="51.2347" cy="26.0391" rx="0.531847" ry="0.573054" fill="#6F6F6F"/>
<ellipse cx="0.533144" cy="0.56554" rx="0.533144" ry="0.56554" transform="matrix(0.938465 -0.345373 0.302177 0.953252 1137.09 396.832)" fill="#6F6F6F"/>
<ellipse cx="0.533144" cy="0.56554" rx="0.533144" ry="0.56554" transform="matrix(0.938465 -0.345373 0.302177 0.953252 947.887 480.307)" fill="#6F6F6F"/>
<ellipse cx="0.533144" cy="0.56554" rx="0.533144" ry="0.56554" transform="matrix(0.938465 -0.345373 0.302177 0.953252 514.478 606.616)" fill="#6F6F6F"/>
<ellipse cx="1473.01" cy="711.728" rx="0.709129" ry="0.573054" fill="#6F6F6F"/>
<ellipse cx="0.53156" cy="0.567029" rx="0.53156" ry="0.567029" transform="matrix(0.96076 0.27738 -0.241331 0.970443 1461.34 567.558)" fill="#6F6F6F"/>
<ellipse cx="0.562042" cy="0.53683" rx="0.562042" ry="0.53683" transform="matrix(0.412349 0.911026 -0.885225 0.465163 1338.25 440.005)" fill="#6F6F6F"/>
<ellipse cx="0.568941" cy="0.529512" rx="0.568941" ry="0.529512" transform="matrix(-0.12712 0.991887 -0.989111 -0.147168 1401.35 408.261)" fill="#6F6F6F"/>
<ellipse cx="1081.75" cy="644.872" rx="0.531847" ry="0.573054" fill="#6F6F6F"/>
<ellipse cx="648.34" cy="771.181" rx="0.531847" ry="0.573054" fill="#6F6F6F"/>
<ellipse cx="646.521" cy="571.712" rx="0.354565" ry="0.382036" fill="#6F6F6F"/>
<ellipse cx="488.721" cy="266.293" rx="0.354565" ry="0.382036" fill="#6F6F6F"/>
<ellipse cx="213.112" cy="698.021" rx="0.354565" ry="0.382036" fill="#6F6F6F"/>
<ellipse cx="0.79536" cy="1.13653" rx="0.79536" ry="1.13653" transform="matrix(0.979092 0.203417 -0.176157 0.984362 855.188 324.443)" fill="#6F6F6F"/>
<ellipse cx="0.79536" cy="1.13653" rx="0.79536" ry="1.13653" transform="matrix(0.979092 0.203417 -0.176157 0.984362 421.779 450.752)" fill="#6F6F6F"/>
<ellipse cx="0.79536" cy="1.13653" rx="0.79536" ry="1.13653" transform="matrix(0.979092 0.203417 -0.176157 0.984362 263.979 145.333)" fill="#6F6F6F"/>
<ellipse cx="1320.73" cy="163.698" rx="0.886412" ry="1.14611" fill="#6F6F6F"/>
<ellipse cx="0.799716" cy="1.13108" rx="0.799716" ry="1.13108" transform="matrix(0.938465 -0.345373 0.302177 0.953252 1002.96 514.818)" fill="#6F6F6F"/>
<ellipse cx="0.799716" cy="1.13108" rx="0.799716" ry="1.13108" transform="matrix(0.938465 -0.345373 0.302177 0.953252 569.556 641.128)" fill="#6F6F6F"/>
<ellipse cx="1368.24" cy="629.208" rx="0.886412" ry="1.33712" fill="#6F6F6F"/>
<ellipse cx="0.828635" cy="1.09345" rx="0.828635" ry="1.09345" transform="matrix(0.627879 0.778311 -0.729876 0.68358 1385.3 420.231)" fill="#6F6F6F"/>
<ellipse cx="0.843063" cy="1.07366" rx="0.843063" ry="1.07366" transform="matrix(0.412349 0.911026 -0.885225 0.465163 1361.51 301.652)" fill="#6F6F6F"/>
<ellipse cx="0.853412" cy="1.05902" rx="0.853412" ry="1.05902" transform="matrix(-0.12712 0.991887 -0.989111 -0.147168 1492.21 307.338)" fill="#6F6F6F"/>
<ellipse cx="0.53024" cy="0.568263" rx="0.53024" ry="0.568263" transform="matrix(0.979092 0.203417 -0.176157 0.984362 829.862 336.586)" fill="#6F6F6F"/>
<ellipse cx="0.53024" cy="0.568263" rx="0.53024" ry="0.568263" transform="matrix(0.979092 0.203417 -0.176157 0.984362 396.453 462.895)" fill="#6F6F6F"/>
<ellipse cx="0.53024" cy="0.568263" rx="0.53024" ry="0.568263" transform="matrix(0.979092 0.203417 -0.176157 0.984362 238.653 157.476)" fill="#6F6F6F"/>
<ellipse cx="1297.5" cy="180.125" rx="0.354565" ry="0.382036" fill="#6F6F6F"/>
<ellipse cx="0.533144" cy="0.56554" rx="0.533144" ry="0.56554" transform="matrix(0.938465 -0.345373 0.302177 0.953252 986.577 538.909)" fill="#6F6F6F"/>
<ellipse cx="0.533144" cy="0.56554" rx="0.533144" ry="0.56554" transform="matrix(0.938465 -0.345373 0.302177 0.953252 553.168 665.218)" fill="#6F6F6F"/>
<ellipse cx="1345.01" cy="645.636" rx="0.354565" ry="0.573054" fill="#6F6F6F"/>
<ellipse cx="0.552423" cy="0.546723" rx="0.552423" ry="0.546723" transform="matrix(0.627879 0.778311 -0.729876 0.68358 1358.42 412.955)" fill="#6F6F6F"/>
<ellipse cx="0.53925" cy="0.559721" rx="0.53925" ry="0.559721" transform="matrix(0.84911 0.528216 -0.472304 0.881436 1270.8 376.462)" fill="#6F6F6F"/>
<ellipse cx="0.568941" cy="0.529512" rx="0.568941" ry="0.529512" transform="matrix(-0.12712 0.991887 -0.989111 -0.147168 1479.61 280.734)" fill="#6F6F6F"/>
<ellipse cx="0.53024" cy="0.568263" rx="0.53024" ry="0.568263" transform="matrix(0.979092 0.203417 -0.176157 0.984362 895.377 172.084)" fill="#6F6F6F"/>
<ellipse cx="0.53024" cy="0.568263" rx="0.53024" ry="0.568263" transform="matrix(0.979092 0.203417 -0.176157 0.984362 461.968 298.393)" fill="#6F6F6F"/>
<ellipse cx="0.533144" cy="0.56554" rx="0.533144" ry="0.56554" transform="matrix(0.938465 -0.345373 0.302177 0.953252 1147.2 481.604)" fill="#6F6F6F"/>
<ellipse cx="658.399" cy="339.052" rx="0.531847" ry="0.764071" fill="#6F6F6F"/>
<ellipse cx="500.599" cy="33.6332" rx="0.531847" ry="0.764071" fill="#6F6F6F"/>
<ellipse cx="224.99" cy="465.361" rx="0.531847" ry="0.764071" fill="#6F6F6F"/>
<ellipse cx="67.19" cy="159.943" rx="0.531847" ry="0.764071" fill="#6F6F6F"/>
<ellipse cx="0.53024" cy="0.568263" rx="0.53024" ry="0.568263" transform="matrix(0.979092 0.203417 -0.176157 0.984362 1025.02 305.19)" fill="#6F6F6F"/>
<ellipse cx="0.53024" cy="0.568263" rx="0.53024" ry="0.568263" transform="matrix(0.979092 0.203417 -0.176157 0.984362 591.608 431.499)" fill="#6F6F6F"/>
<ellipse cx="0.53024" cy="0.568263" rx="0.53024" ry="0.568263" transform="matrix(0.979092 0.203417 -0.176157 0.984362 433.808 126.08)" fill="#6F6F6F"/>
<ellipse cx="1280.48" cy="647.355" rx="0.354565" ry="0.382036" fill="#6F6F6F"/>
<ellipse cx="1483.65" cy="109.449" rx="0.709129" ry="0.382036" fill="#6F6F6F"/>
<ellipse cx="1240.42" cy="135.045" rx="0.354565" ry="0.764071" fill="#6F6F6F"/>
<ellipse cx="643.507" cy="216.801" rx="0.531847" ry="0.382036" fill="#6F6F6F"/>
<ellipse cx="210.098" cy="343.11" rx="0.531847" ry="0.382036" fill="#6F6F6F"/>
<ellipse cx="52.2982" cy="37.6914" rx="0.531847" ry="0.382036" fill="#6F6F6F"/>
<ellipse cx="0.533144" cy="0.56554" rx="0.533144" ry="0.56554" transform="matrix(0.938465 -0.345373 0.302177 0.953252 952.135 490.181)" fill="#6F6F6F"/>
<ellipse cx="0.533144" cy="0.56554" rx="0.533144" ry="0.56554" transform="matrix(0.938465 -0.345373 0.302177 0.953252 518.726 616.49)" fill="#6F6F6F"/>
<ellipse cx="1327.11" cy="587.567" rx="0.531847" ry="0.573054" fill="#6F6F6F"/>
<ellipse cx="1082.81" cy="655.76" rx="0.531847" ry="0.382036" fill="#6F6F6F"/>
<ellipse cx="649.404" cy="782.069" rx="0.531847" ry="0.382036" fill="#6F6F6F"/>
<ellipse cx="0.53024" cy="0.568263" rx="0.53024" ry="0.568263" transform="matrix(0.979092 0.203417 -0.176157 0.984362 932.363 296.383)" fill="#6F6F6F"/>
<ellipse cx="0.53024" cy="0.568263" rx="0.53024" ry="0.568263" transform="matrix(0.979092 0.203417 -0.176157 0.984362 498.954 422.693)" fill="#6F6F6F"/>
<ellipse cx="0.53024" cy="0.568263" rx="0.53024" ry="0.568263" transform="matrix(0.979092 0.203417 -0.176157 0.984362 341.154 117.274)" fill="#6F6F6F"/>
<ellipse cx="1187.94" cy="657.67" rx="0.354565" ry="0.382036" fill="#6F6F6F"/>
<ellipse cx="1391.11" cy="119.955" rx="0.709129" ry="0.573054" fill="#6F6F6F"/>
<ellipse cx="1147.88" cy="145.551" rx="0.354565" ry="0.573054" fill="#6F6F6F"/>
<ellipse cx="0.533144" cy="0.56554" rx="0.533144" ry="0.56554" transform="matrix(0.938465 -0.345373 0.302177 0.953252 1046.77 416.827)" fill="#6F6F6F"/>
<ellipse cx="0.533144" cy="0.56554" rx="0.533144" ry="0.56554" transform="matrix(0.938465 -0.345373 0.302177 0.953252 613.36 543.136)" fill="#6F6F6F"/>
<ellipse cx="0.533144" cy="0.56554" rx="0.533144" ry="0.56554" transform="matrix(0.938465 -0.345373 0.302177 0.953252 455.56 237.717)" fill="#6F6F6F"/>
<ellipse cx="0.534377" cy="0.564375" rx="0.534377" ry="0.564375" transform="matrix(0.920874 -0.389859 0.342594 0.939484 1051.11 356.914)" fill="#6F6F6F"/>
<ellipse cx="0.534377" cy="0.564375" rx="0.534377" ry="0.564375" transform="matrix(0.920874 -0.389859 0.342594 0.939484 617.699 483.223)" fill="#6F6F6F"/>
<ellipse cx="0.534377" cy="0.564375" rx="0.534377" ry="0.564375" transform="matrix(0.920874 -0.389859 0.342594 0.939484 459.899 177.804)" fill="#6F6F6F"/>
<ellipse cx="1336.86" cy="231.319" rx="0.354565" ry="0.382036" fill="#6F6F6F"/>
<ellipse cx="1265.95" cy="175.541" rx="0.709129" ry="0.764071" fill="#6F6F6F"/>
<ellipse cx="668.858" cy="257.106" rx="0.354565" ry="0.573054" fill="#6F6F6F"/>
<ellipse cx="235.45" cy="383.415" rx="0.354565" ry="0.573054" fill="#6F6F6F"/>
<ellipse cx="77.6496" cy="77.9959" rx="0.354565" ry="0.573054" fill="#6F6F6F"/>
<ellipse cx="0.53024" cy="0.568263" rx="0.53024" ry="0.568263" transform="matrix(0.979092 0.203417 -0.176157 0.984362 769.26 281.062)" fill="#6F6F6F"/>
<ellipse cx="0.53024" cy="0.568263" rx="0.53024" ry="0.568263" transform="matrix(0.979092 0.203417 -0.176157 0.984362 335.851 407.372)" fill="#6F6F6F"/>
<ellipse cx="0.53024" cy="0.568263" rx="0.53024" ry="0.568263" transform="matrix(0.979092 0.203417 -0.176157 0.984362 178.051 101.953)" fill="#6F6F6F"/>
<ellipse cx="0.533144" cy="0.56554" rx="0.533144" ry="0.56554" transform="matrix(0.938465 -0.345373 0.302177 0.953252 908.387 523.137)" fill="#6F6F6F"/>
<ellipse cx="0.533144" cy="0.56554" rx="0.533144" ry="0.56554" transform="matrix(0.938465 -0.345373 0.302177 0.953252 474.978 649.446)" fill="#6F6F6F"/>
<ellipse cx="1275.87" cy="603.421" rx="0.709129" ry="0.764071" fill="#6F6F6F"/>
<ellipse cx="0.534377" cy="0.564375" rx="0.534377" ry="0.564375" transform="matrix(0.920874 -0.389859 0.342594 0.939484 1046.85 345.249)" fill="#6F6F6F"/>
<ellipse cx="0.534377" cy="0.564375" rx="0.534377" ry="0.564375" transform="matrix(0.920874 -0.389859 0.342594 0.939484 613.446 471.558)" fill="#6F6F6F"/>
<ellipse cx="0.534377" cy="0.564375" rx="0.534377" ry="0.564375" transform="matrix(0.920874 -0.389859 0.342594 0.939484 455.646 166.139)" fill="#6F6F6F"/>
<ellipse cx="1336.86" cy="222.913" rx="0.354565" ry="0.382036" fill="#6F6F6F"/>
<ellipse cx="1265.95" cy="163.125" rx="0.709129" ry="0.573054" fill="#6F6F6F"/>
<ellipse cx="668.858" cy="244.498" rx="0.354565" ry="0.573054" fill="#6F6F6F"/>
<ellipse cx="235.45" cy="370.808" rx="0.354565" ry="0.573054" fill="#6F6F6F"/>
<ellipse cx="77.6496" cy="65.3887" rx="0.354565" ry="0.573054" fill="#6F6F6F"/>
<ellipse cx="0.568969" cy="0.529483" rx="0.568969" ry="0.529483" transform="matrix(0.124767 -0.992186 0.989511 0.144459 1012.23 397.225)" fill="#6F6F6F"/>
<ellipse cx="0.568969" cy="0.529483" rx="0.568969" ry="0.529483" transform="matrix(0.124767 -0.992186 0.989511 0.144459 578.822 523.534)" fill="#6F6F6F"/>
<ellipse cx="0.568969" cy="0.529483" rx="0.568969" ry="0.529483" transform="matrix(0.124767 -0.992186 0.989511 0.144459 421.021 218.115)" fill="#6F6F6F"/>
<ellipse cx="1258.5" cy="738.471" rx="0.709129" ry="0.573054" fill="#6F6F6F"/>
<ellipse cx="1461.49" cy="200.756" rx="0.531847" ry="0.382036" fill="#6F6F6F"/>
<ellipse cx="1218.08" cy="226.352" rx="0.354565" ry="0.764071" fill="#6F6F6F"/>
<ellipse cx="0.565175" cy="0.53353" rx="0.565175" ry="0.53353" transform="matrix(0.315361 -0.948972 0.932972 0.359949 1063.97 427.293)" fill="#6F6F6F"/>
<ellipse cx="0.565175" cy="0.53353" rx="0.565175" ry="0.53353" transform="matrix(0.315361 -0.948972 0.932972 0.359949 630.557 553.602)" fill="#6F6F6F"/>
<ellipse cx="0.565175" cy="0.53353" rx="0.565175" ry="0.53353" transform="matrix(0.315361 -0.948972 0.932972 0.359949 472.757 248.183)" fill="#6F6F6F"/>
<ellipse cx="0.534377" cy="0.846562" rx="0.534377" ry="0.846562" transform="matrix(0.920874 -0.389859 0.342594 0.939484 1051.51 354.906)" fill="#6F6F6F"/>
<ellipse cx="0.534377" cy="0.846562" rx="0.534377" ry="0.846562" transform="matrix(0.920874 -0.389859 0.342594 0.939484 618.104 481.216)" fill="#6F6F6F"/>
<ellipse cx="0.534377" cy="0.846562" rx="0.534377" ry="0.846562" transform="matrix(0.920874 -0.389859 0.342594 0.939484 460.304 175.797)" fill="#6F6F6F"/>
<ellipse cx="1267.01" cy="174.204" rx="0.354565" ry="0.573054" fill="#6F6F6F"/>
<ellipse cx="0.533144" cy="0.56554" rx="0.533144" ry="0.56554" transform="matrix(0.938465 -0.345373 0.302177 0.953252 867.416 473.2)" fill="#6F6F6F"/>
<ellipse cx="0.533144" cy="0.56554" rx="0.533144" ry="0.56554" transform="matrix(0.938465 -0.345373 0.302177 0.953252 434.007 599.509)" fill="#6F6F6F"/>
<ellipse cx="1399.26" cy="676.963" rx="0.354565" ry="0.573054" fill="#6F6F6F"/>
<ellipse cx="0.552423" cy="0.546723" rx="0.552423" ry="0.546723" transform="matrix(0.627879 0.778311 -0.729876 0.68358 1371.85 477.365)" fill="#6F6F6F"/>
<ellipse cx="0.562042" cy="0.53683" rx="0.562042" ry="0.53683" transform="matrix(0.412349 0.911026 -0.885225 0.465163 1334.79 353.087)" fill="#6F6F6F"/>
<ellipse cx="0.568941" cy="0.529512" rx="0.568941" ry="0.529512" transform="matrix(-0.12712 0.991887 -0.989111 -0.147168 1443.43 334.009)" fill="#6F6F6F"/>
<ellipse cx="1130.5" cy="789.663" rx="0.354565" ry="0.573054" fill="#6F6F6F"/>
<ellipse cx="1007.82" cy="610.107" rx="0.354565" ry="0.573054" fill="#6F6F6F"/>
<ellipse cx="574.413" cy="736.416" rx="0.354565" ry="0.573054" fill="#6F6F6F"/>
<ellipse cx="1381.18" cy="717.268" rx="0.709129" ry="0.382036" fill="#6F6F6F"/>
<ellipse cx="0.53156" cy="0.567029" rx="0.53156" ry="0.567029" transform="matrix(0.96076 0.27738 -0.241331 0.970443 1371.11 547.405)" fill="#6F6F6F"/>
<ellipse cx="0.53925" cy="0.559721" rx="0.53925" ry="0.559721" transform="matrix(0.84911 0.528216 -0.472304 0.881436 1268.63 457.994)" fill="#6F6F6F"/>
<ellipse cx="0.568941" cy="0.529512" rx="0.568941" ry="0.529512" transform="matrix(-0.12712 0.991887 -0.989111 -0.147168 1408.7 309.289)" fill="#6F6F6F"/>
<ellipse cx="779.837" cy="470.091" rx="0.709129" ry="0.382036" fill="#6F6F6F"/>
<ellipse cx="346.428" cy="596.4" rx="0.709129" ry="0.382036" fill="#6F6F6F"/>
<ellipse cx="908.899" cy="645.636" rx="0.709129" ry="0.573054" fill="#6F6F6F"/>
<ellipse cx="475.49" cy="771.945" rx="0.709129" ry="0.573054" fill="#6F6F6F"/>
<ellipse cx="1023.07" cy="123.202" rx="0.354565" ry="0.382036" fill="#6F6F6F"/>
<ellipse cx="589.66" cy="249.511" rx="0.354565" ry="0.382036" fill="#6F6F6F"/>
<ellipse cx="752.535" cy="162.552" rx="0.354565" ry="0.382036" fill="#6F6F6F"/>
<ellipse cx="319.127" cy="288.861" rx="0.354565" ry="0.382036" fill="#6F6F6F"/>
<ellipse cx="885.675" cy="596.545" rx="0.531847" ry="0.382036" fill="#6F6F6F"/>
<ellipse cx="452.266" cy="722.854" rx="0.531847" ry="0.382036" fill="#6F6F6F"/>
<ellipse cx="1014.56" cy="772.09" rx="0.709129" ry="0.573054" fill="#6F6F6F"/>
<ellipse cx="776.114" cy="545.352" rx="0.531847" ry="0.382036" fill="#6F6F6F"/>
<ellipse cx="342.705" cy="671.661" rx="0.531847" ry="0.382036" fill="#6F6F6F"/>
<ellipse cx="906.771" cy="784.506" rx="0.709129" ry="0.382036" fill="#6F6F6F"/>
<ellipse cx="0.53024" cy="0.568263" rx="0.53024" ry="0.568263" transform="matrix(0.979092 0.203417 -0.176157 0.984362 1123.35 375.516)" fill="#6F6F6F"/>
<ellipse cx="0.53024" cy="0.568263" rx="0.53024" ry="0.568263" transform="matrix(0.979092 0.203417 -0.176157 0.984362 877.004 217.582)" fill="#6F6F6F"/>
<ellipse cx="0.53024" cy="0.568263" rx="0.53024" ry="0.568263" transform="matrix(0.979092 0.203417 -0.176157 0.984362 443.595 343.891)" fill="#6F6F6F"/>
<ellipse cx="0.53024" cy="0.568263" rx="0.53024" ry="0.568263" transform="matrix(0.979092 0.203417 -0.176157 0.984362 285.795 38.4722)" fill="#6F6F6F"/>
<ellipse cx="0.550958" cy="0.5482" rx="0.550958" ry="0.5482" transform="matrix(0.655302 -0.755367 0.704578 0.709627 788.366 559.869)" fill="#6F6F6F"/>
<ellipse cx="0.550958" cy="0.5482" rx="0.550958" ry="0.5482" transform="matrix(0.655302 -0.755367 0.704578 0.709627 354.958 686.178)" fill="#6F6F6F"/>
<ellipse cx="918.472" cy="790.237" rx="0.354565" ry="0.382036" fill="#6F6F6F"/>
<ellipse cx="678.431" cy="582.982" rx="0.354565" ry="0.573054" fill="#6F6F6F"/>
<ellipse cx="245.023" cy="709.291" rx="0.354565" ry="0.573054" fill="#6F6F6F"/>
<ellipse cx="0.534377" cy="0.564375" rx="0.534377" ry="0.564375" transform="matrix(0.920874 -0.389859 0.342594 0.939484 1049.81 326.861)" fill="#6F6F6F"/>
<ellipse cx="0.534377" cy="0.564375" rx="0.534377" ry="0.564375" transform="matrix(0.920874 -0.389859 0.342594 0.939484 616.397 453.17)" fill="#6F6F6F"/>
<ellipse cx="0.534377" cy="0.564375" rx="0.534377" ry="0.564375" transform="matrix(0.920874 -0.389859 0.342594 0.939484 458.597 147.751)" fill="#6F6F6F"/>
<ellipse cx="1274.81" cy="147.079" rx="0.354565" ry="0.573054" fill="#6F6F6F"/>
<ellipse cx="0.799716" cy="1.13108" rx="0.799716" ry="1.13108" transform="matrix(0.938465 -0.345373 0.302177 0.953252 972.902 446.419)" fill="#6F6F6F"/>
<ellipse cx="0.799716" cy="1.13108" rx="0.799716" ry="1.13108" transform="matrix(0.938465 -0.345373 0.302177 0.953252 539.493 572.728)" fill="#6F6F6F"/>
<ellipse cx="0.799716" cy="1.13108" rx="0.799716" ry="1.13108" transform="matrix(0.938465 -0.345373 0.302177 0.953252 381.693 267.309)" fill="#6F6F6F"/>
<ellipse cx="1507.05" cy="688.997" rx="0.709129" ry="1.14611" fill="#6F6F6F"/>
<ellipse cx="0.797339" cy="1.13406" rx="0.797339" ry="1.13406" transform="matrix(0.96076 0.27738 -0.241331 0.970443 1499.64 554.433)" fill="#6F6F6F"/>
<ellipse cx="0.843063" cy="1.07366" rx="0.843063" ry="1.07366" transform="matrix(0.412349 0.911026 -0.885225 0.465163 1372.56 462.537)" fill="#6F6F6F"/>
<ellipse cx="0.853412" cy="1.05902" rx="0.853412" ry="1.05902" transform="matrix(-0.12712 0.991887 -0.989111 -0.147168 1418.2 447.573)" fill="#6F6F6F"/>
<ellipse cx="1116.14" cy="622.141" rx="0.886412" ry="1.14611" fill="#6F6F6F"/>
<ellipse cx="682.733" cy="748.45" rx="0.886412" ry="1.14611" fill="#6F6F6F"/>
<ellipse cx="0.799716" cy="1.13108" rx="0.799716" ry="1.13108" transform="matrix(0.938465 -0.345373 0.302177 0.953252 922.952 452.761)" fill="#6F6F6F"/>
<ellipse cx="0.799716" cy="1.13108" rx="0.799716" ry="1.13108" transform="matrix(0.938465 -0.345373 0.302177 0.953252 489.544 579.071)" fill="#6F6F6F"/>
<ellipse cx="1457.94" cy="677.536" rx="0.886412" ry="1.14611" fill="#6F6F6F"/>
<ellipse cx="0.828635" cy="1.09345" rx="0.828635" ry="1.09345" transform="matrix(0.627879 0.778311 -0.729876 0.68358 1410.35 525.091)" fill="#6F6F6F"/>
<ellipse cx="0.843063" cy="1.07366" rx="0.843063" ry="1.07366" transform="matrix(0.412349 0.911026 -0.885225 0.465163 1360.51 409.923)" fill="#6F6F6F"/>
<ellipse cx="0.853412" cy="1.05902" rx="0.853412" ry="1.05902" transform="matrix(-0.12712 0.991887 -0.989111 -0.147168 1435.4 396.649)" fill="#6F6F6F"/>
<ellipse cx="1189.18" cy="790.427" rx="0.886412" ry="1.33712" fill="#6F6F6F"/>
<ellipse cx="1066.86" cy="610.871" rx="0.886412" ry="1.33712" fill="#6F6F6F"/>
<ellipse cx="633.449" cy="737.18" rx="0.886412" ry="1.33712" fill="#6F6F6F"/>
<ellipse cx="954.992" cy="91.1113" rx="0.354565" ry="0.382036" fill="#6F6F6F"/>
<ellipse cx="521.583" cy="217.421" rx="0.354565" ry="0.382036" fill="#6F6F6F"/>
<ellipse cx="706.797" cy="141.158" rx="0.354565" ry="0.382036" fill="#6F6F6F"/>
<ellipse cx="273.388" cy="267.467" rx="0.354565" ry="0.382036" fill="#6F6F6F"/>
<ellipse cx="709.633" cy="577.252" rx="0.709129" ry="0.573054" fill="#6F6F6F"/>
<ellipse cx="276.224" cy="703.561" rx="0.709129" ry="0.573054" fill="#6F6F6F"/>
<ellipse cx="0.565636" cy="0.533042" rx="0.565636" ry="0.533042" transform="matrix(0.298605 -0.954377 0.939913 0.341414 1002.02 386.685)" fill="#6F6F6F"/>
<ellipse cx="0.565636" cy="0.533042" rx="0.565636" ry="0.533042" transform="matrix(0.298605 -0.954377 0.939913 0.341414 568.614 512.994)" fill="#6F6F6F"/>
<ellipse cx="0.565636" cy="0.533042" rx="0.565636" ry="0.533042" transform="matrix(0.298605 -0.954377 0.939913 0.341414 410.814 207.575)" fill="#6F6F6F"/>
<ellipse cx="1278.53" cy="744.201" rx="0.531847" ry="0.573054" fill="#6F6F6F"/>
<ellipse cx="1481.7" cy="206.295" rx="0.531847" ry="0.573054" fill="#6F6F6F"/>
<ellipse cx="1238.29" cy="232.082" rx="0.709129" ry="0.764071" fill="#6F6F6F"/>
<ellipse cx="715.661" cy="267.612" rx="0.354565" ry="0.382036" fill="#6F6F6F"/>
<ellipse cx="282.252" cy="393.921" rx="0.354565" ry="0.382036" fill="#6F6F6F"/>
<ellipse cx="124.452" cy="88.5019" rx="0.354565" ry="0.382036" fill="#6F6F6F"/>
<ellipse cx="0.565175" cy="0.53353" rx="0.565175" ry="0.53353" transform="matrix(0.315361 -0.948972 0.932972 0.359949 1075.72 408.833)" fill="#6F6F6F"/>
<ellipse cx="0.565175" cy="0.53353" rx="0.565175" ry="0.53353" transform="matrix(0.315361 -0.948972 0.932972 0.359949 642.308 535.142)" fill="#6F6F6F"/>
<ellipse cx="0.565175" cy="0.53353" rx="0.565175" ry="0.53353" transform="matrix(0.315361 -0.948972 0.932972 0.359949 484.508 229.723)" fill="#6F6F6F"/>
<ellipse cx="0.53024" cy="0.568263" rx="0.53024" ry="0.568263" transform="matrix(0.979092 0.203417 -0.176157 0.984362 1071.09 294.456)" fill="#6F6F6F"/>
<ellipse cx="0.53024" cy="0.568263" rx="0.53024" ry="0.568263" transform="matrix(0.979092 0.203417 -0.176157 0.984362 637.682 420.765)" fill="#6F6F6F"/>
<ellipse cx="0.53024" cy="0.568263" rx="0.53024" ry="0.568263" transform="matrix(0.979092 0.203417 -0.176157 0.984362 479.882 115.346)" fill="#6F6F6F"/>
<ellipse cx="1283.67" cy="115.179" rx="0.709129" ry="0.382036" fill="#6F6F6F"/>
<ellipse cx="780.546" cy="126.641" rx="0.354565" ry="0.764071" fill="#6F6F6F"/>
<ellipse cx="347.138" cy="252.95" rx="0.354565" ry="0.764071" fill="#6F6F6F"/>
<ellipse cx="595.286" cy="459.967" rx="0.531847" ry="0.573054" fill="#6F6F6F"/>
<ellipse cx="437.486" cy="154.548" rx="0.531847" ry="0.573054" fill="#6F6F6F"/>
<ellipse cx="161.877" cy="586.276" rx="0.531847" ry="0.573054" fill="#6F6F6F"/>
<ellipse cx="0.53024" cy="0.568263" rx="0.53024" ry="0.568263" transform="matrix(0.979092 0.203417 -0.176157 0.984362 777.385 286.812)" fill="#6F6F6F"/>
<ellipse cx="0.53024" cy="0.568263" rx="0.53024" ry="0.568263" transform="matrix(0.979092 0.203417 -0.176157 0.984362 343.976 413.121)" fill="#6F6F6F"/>
<ellipse cx="0.53024" cy="0.568263" rx="0.53024" ry="0.568263" transform="matrix(0.979092 0.203417 -0.176157 0.984362 186.176 107.702)" fill="#6F6F6F"/>
<ellipse cx="0.533144" cy="0.56554" rx="0.533144" ry="0.56554" transform="matrix(0.938465 -0.345373 0.302177 0.953252 918.089 523.781)" fill="#6F6F6F"/>
<ellipse cx="0.533144" cy="0.56554" rx="0.533144" ry="0.56554" transform="matrix(0.938465 -0.345373 0.302177 0.953252 484.68 650.09)" fill="#6F6F6F"/>
<ellipse cx="1284.91" cy="607.432" rx="0.531847" ry="0.573054" fill="#6F6F6F"/>
<ellipse cx="965.274" cy="184.328" rx="0.354565" ry="0.382036" fill="#6F6F6F"/>
<ellipse cx="531.866" cy="310.637" rx="0.354565" ry="0.382036" fill="#6F6F6F"/>
<ellipse cx="374.065" cy="5.21822" rx="0.354565" ry="0.382036" fill="#6F6F6F"/>
<ellipse cx="706.797" cy="133.517" rx="0.354565" ry="0.382036" fill="#6F6F6F"/>
<ellipse cx="273.388" cy="259.826" rx="0.354565" ry="0.382036" fill="#6F6F6F"/>
<ellipse cx="0.568969" cy="0.529483" rx="0.568969" ry="0.529483" transform="matrix(0.124767 -0.992186 0.989511 0.144459 1017.1 388.164)" fill="#6F6F6F"/>
<ellipse cx="0.568969" cy="0.529483" rx="0.568969" ry="0.529483" transform="matrix(0.124767 -0.992186 0.989511 0.144459 583.696 514.473)" fill="#6F6F6F"/>
<ellipse cx="0.568969" cy="0.529483" rx="0.568969" ry="0.529483" transform="matrix(0.124767 -0.992186 0.989511 0.144459 425.896 209.054)" fill="#6F6F6F"/>
<ellipse cx="1267.36" cy="742.482" rx="0.354565" ry="0.764071" fill="#6F6F6F"/>
<ellipse cx="1470.53" cy="204.767" rx="0.709129" ry="0.573054" fill="#6F6F6F"/>
<ellipse cx="1227.3" cy="230.363" rx="0.354565" ry="0.573054" fill="#6F6F6F"/>
<ellipse cx="708.215" cy="266.466" rx="0.354565" ry="0.382036" fill="#6F6F6F"/>
<ellipse cx="274.806" cy="392.775" rx="0.354565" ry="0.382036" fill="#6F6F6F"/>
<ellipse cx="117.006" cy="87.3557" rx="0.354565" ry="0.382036" fill="#6F6F6F"/>
<ellipse cx="0.565175" cy="0.53353" rx="0.565175" ry="0.53353" transform="matrix(0.315361 -0.948972 0.932972 0.359949 1070.48 419.52)" fill="#6F6F6F"/>
<ellipse cx="0.565175" cy="0.53353" rx="0.565175" ry="0.53353" transform="matrix(0.315361 -0.948972 0.932972 0.359949 637.072 545.829)" fill="#6F6F6F"/>
<ellipse cx="0.565175" cy="0.53353" rx="0.565175" ry="0.53353" transform="matrix(0.315361 -0.948972 0.932972 0.359949 479.272 240.41)" fill="#6F6F6F"/>
<ellipse cx="663.54" cy="386.425" rx="0.354565" ry="0.382036" fill="#6F6F6F"/>
<ellipse cx="505.74" cy="81.0061" rx="0.354565" ry="0.382036" fill="#6F6F6F"/>
<ellipse cx="230.131" cy="512.734" rx="0.354565" ry="0.382036" fill="#6F6F6F"/>
<ellipse cx="72.3311" cy="207.315" rx="0.354565" ry="0.382036" fill="#6F6F6F"/>
<ellipse cx="0.799716" cy="0.56554" rx="0.799716" ry="0.56554" transform="matrix(0.938465 -0.345373 0.302177 0.953252 877.788 474.198)" fill="#6F6F6F"/>
<ellipse cx="0.799716" cy="0.56554" rx="0.799716" ry="0.56554" transform="matrix(0.938465 -0.345373 0.302177 0.953252 444.38 600.508)" fill="#6F6F6F"/>
<ellipse cx="1408.66" cy="681.547" rx="0.886412" ry="0.573054" fill="#6F6F6F"/>
<ellipse cx="0.828635" cy="0.546723" rx="0.828635" ry="0.546723" transform="matrix(0.627879 0.778311 -0.729876 0.68358 1374.9 488.094)" fill="#6F6F6F"/>
<ellipse cx="0.843063" cy="0.53683" rx="0.843063" ry="0.53683" transform="matrix(0.412349 0.911026 -0.885225 0.465163 1335.16 364.302)" fill="#6F6F6F"/>
<ellipse cx="0.853412" cy="0.529512" rx="0.853412" ry="0.529512" transform="matrix(-0.12712 0.991887 -0.989111 -0.147168 1437.94 343.543)" fill="#6F6F6F"/>
<ellipse cx="1017.75" cy="614.882" rx="0.709129" ry="0.382036" fill="#6F6F6F"/>
<ellipse cx="584.341" cy="741.192" rx="0.709129" ry="0.382036" fill="#6F6F6F"/>
<ellipse cx="1390.93" cy="722.043" rx="0.886412" ry="0.573054" fill="#6F6F6F"/>
<ellipse cx="0.797339" cy="0.567029" rx="0.797339" ry="0.567029" transform="matrix(0.96076 0.27738 -0.241331 0.970443 1379.21 554.461)" fill="#6F6F6F"/>
<ellipse cx="0.808874" cy="0.559721" rx="0.808874" ry="0.559721" transform="matrix(0.84911 0.528216 -0.472304 0.881436 1274.75 467.068)" fill="#6F6F6F"/>
<ellipse cx="0.853412" cy="0.529512" rx="0.853412" ry="0.529512" transform="matrix(-0.12712 0.991887 -0.989111 -0.147168 1403.21 318.824)" fill="#6F6F6F"/>
<ellipse cx="0.53024" cy="0.568263" rx="0.53024" ry="0.568263" transform="matrix(0.979092 0.203417 -0.176157 0.984362 1073.09 283.269)" fill="#6F6F6F"/>
<ellipse cx="0.53024" cy="0.568263" rx="0.53024" ry="0.568263" transform="matrix(0.979092 0.203417 -0.176157 0.984362 639.684 409.578)" fill="#6F6F6F"/>
<ellipse cx="0.53024" cy="0.568263" rx="0.53024" ry="0.568263" transform="matrix(0.979092 0.203417 -0.176157 0.984362 481.884 104.159)" fill="#6F6F6F"/>
<ellipse cx="1283.67" cy="103.909" rx="0.709129" ry="0.573054" fill="#6F6F6F"/>
<ellipse cx="595.995" cy="570.948" rx="0.531847" ry="0.764071" fill="#6F6F6F"/>
<ellipse cx="438.195" cy="265.529" rx="0.531847" ry="0.764071" fill="#6F6F6F"/>
<ellipse cx="162.587" cy="697.257" rx="0.531847" ry="0.764071" fill="#6F6F6F"/>
<ellipse cx="788.879" cy="474.102" rx="0.531847" ry="0.573054" fill="#6F6F6F"/>
<ellipse cx="355.47" cy="600.411" rx="0.531847" ry="0.573054" fill="#6F6F6F"/>
<ellipse cx="917.94" cy="649.647" rx="0.531847" ry="0.382036" fill="#6F6F6F"/>
<ellipse cx="484.531" cy="775.957" rx="0.531847" ry="0.382036" fill="#6F6F6F"/>
<ellipse cx="0.533144" cy="0.56554" rx="0.533144" ry="0.56554" transform="matrix(0.938465 -0.345373 0.302177 0.953252 1049.19 380.416)" fill="#6F6F6F"/>
<ellipse cx="0.533144" cy="0.56554" rx="0.533144" ry="0.56554" transform="matrix(0.938465 -0.345373 0.302177 0.953252 615.786 506.725)" fill="#6F6F6F"/>
<ellipse cx="0.533144" cy="0.56554" rx="0.533144" ry="0.56554" transform="matrix(0.938465 -0.345373 0.302177 0.953252 457.986 201.306)" fill="#6F6F6F"/>
<ellipse cx="1290.06" cy="253.094" rx="0.354565" ry="0.764071" fill="#6F6F6F"/>
<ellipse cx="1054.98" cy="134.663" rx="0.354565" ry="0.764071" fill="#6F6F6F"/>
<ellipse cx="621.571" cy="260.973" rx="0.354565" ry="0.764071" fill="#6F6F6F"/>
<ellipse cx="895.425" cy="601.32" rx="0.709129" ry="0.573054" fill="#6F6F6F"/>
<ellipse cx="462.017" cy="727.629" rx="0.709129" ry="0.573054" fill="#6F6F6F"/>
<ellipse cx="1024.31" cy="776.483" rx="0.886412" ry="0.382036" fill="#6F6F6F"/>
<ellipse cx="0.563" cy="0.535825" rx="0.563" ry="0.535825" transform="matrix(0.385115 -0.922869 0.899948 0.435998 833.083 605.982)" fill="#6F6F6F"/>
<ellipse cx="0.563" cy="0.535825" rx="0.563" ry="0.535825" transform="matrix(0.385115 -0.922869 0.899948 0.435998 399.675 732.291)" fill="#6F6F6F"/>
<ellipse cx="938.505" cy="795.967" rx="0.531847" ry="0.764071" fill="#6F6F6F"/>
<ellipse cx="0.53024" cy="0.568263" rx="0.53024" ry="0.568263" transform="matrix(0.979092 0.203417 -0.176157 0.984362 1152.5 393.175)" fill="#6F6F6F"/>
<ellipse cx="0.53024" cy="0.568263" rx="0.53024" ry="0.568263" transform="matrix(0.979092 0.203417 -0.176157 0.984362 885.129 223.331)" fill="#6F6F6F"/>
<ellipse cx="0.53024" cy="0.568263" rx="0.53024" ry="0.568263" transform="matrix(0.979092 0.203417 -0.176157 0.984362 451.72 349.64)" fill="#6F6F6F"/>
<ellipse cx="0.53024" cy="0.568263" rx="0.53024" ry="0.568263" transform="matrix(0.979092 0.203417 -0.176157 0.984362 293.92 44.2212)" fill="#6F6F6F"/>
<ellipse cx="1128.91" cy="595.589" rx="0.531847" ry="0.573054" fill="#6F6F6F"/>
<ellipse cx="0.550958" cy="0.5482" rx="0.550958" ry="0.5482" transform="matrix(0.655302 -0.755367 0.704578 0.709627 797.208 555.517)" fill="#6F6F6F"/>
<ellipse cx="0.550958" cy="0.5482" rx="0.550958" ry="0.5482" transform="matrix(0.655302 -0.755367 0.704578 0.709627 363.799 681.827)" fill="#6F6F6F"/>
<ellipse cx="927.513" cy="794.248" rx="0.531847" ry="0.573054" fill="#6F6F6F"/>
<ellipse cx="687.296" cy="586.994" rx="0.709129" ry="0.764071" fill="#6F6F6F"/>
<ellipse cx="253.887" cy="713.303" rx="0.709129" ry="0.764071" fill="#6F6F6F"/>
<ellipse cx="0.799716" cy="0.56554" rx="0.799716" ry="0.56554" transform="matrix(0.938465 -0.345373 0.302177 0.953252 984.117 448.312)" fill="#6F6F6F"/>
<ellipse cx="0.799716" cy="0.56554" rx="0.799716" ry="0.56554" transform="matrix(0.938465 -0.345373 0.302177 0.953252 550.708 574.621)" fill="#6F6F6F"/>
<ellipse cx="1342.35" cy="596.162" rx="0.531847" ry="0.382036" fill="#6F6F6F"/>
<ellipse cx="0.797339" cy="0.567029" rx="0.797339" ry="0.567029" transform="matrix(0.96076 0.27738 -0.241331 0.970443 1507.97 562.738)" fill="#6F6F6F"/>
<ellipse cx="0.843063" cy="0.53683" rx="0.843063" ry="0.53683" transform="matrix(0.412349 0.911026 -0.885225 0.465163 1372.21 474.762)" fill="#6F6F6F"/>
<ellipse cx="0.853412" cy="0.529512" rx="0.853412" ry="0.529512" transform="matrix(-0.12712 0.991887 -0.989111 -0.147168 1411.59 457.516)" fill="#6F6F6F"/>
<ellipse cx="1126.07" cy="627.298" rx="0.886412" ry="0.573054" fill="#6F6F6F"/>
<ellipse cx="964.033" cy="95.3136" rx="0.531847" ry="0.764071" fill="#6F6F6F"/>
<ellipse cx="530.625" cy="221.623" rx="0.531847" ry="0.764071" fill="#6F6F6F"/>
<ellipse cx="712.825" cy="143.832" rx="0.354565" ry="0.382036" fill="#6F6F6F"/>
<ellipse cx="279.416" cy="270.141" rx="0.354565" ry="0.382036" fill="#6F6F6F"/>
<ellipse cx="0.53024" cy="0.568263" rx="0.53024" ry="0.568263" transform="matrix(0.979092 0.203417 -0.176157 0.984362 887.131 212.143)" fill="#6F6F6F"/>
<ellipse cx="0.53024" cy="0.568263" rx="0.53024" ry="0.568263" transform="matrix(0.979092 0.203417 -0.176157 0.984362 453.722 338.453)" fill="#6F6F6F"/>
<ellipse cx="0.53024" cy="0.568263" rx="0.53024" ry="0.568263" transform="matrix(0.979092 0.203417 -0.176157 0.984362 295.922 33.0337)" fill="#6F6F6F"/>
<ellipse cx="1128.91" cy="584.128" rx="0.531847" ry="0.573054" fill="#6F6F6F"/>
<ellipse cx="718.497" cy="581.263" rx="0.354565" ry="0.764071" fill="#6F6F6F"/>
<ellipse cx="285.089" cy="707.572" rx="0.354565" ry="0.764071" fill="#6F6F6F"/>
<ellipse cx="0.534377" cy="0.564375" rx="0.534377" ry="0.564375" transform="matrix(0.920874 -0.389859 0.342594 0.939484 1067.17 329.303)" fill="#6F6F6F"/>
<ellipse cx="0.534377" cy="0.564375" rx="0.534377" ry="0.564375" transform="matrix(0.920874 -0.389859 0.342594 0.939484 633.761 455.612)" fill="#6F6F6F"/>
<ellipse cx="0.534377" cy="0.564375" rx="0.534377" ry="0.564375" transform="matrix(0.920874 -0.389859 0.342594 0.939484 475.961 150.193)" fill="#6F6F6F"/>
<ellipse cx="1290.06" cy="156.248" rx="0.354565" ry="0.573054" fill="#6F6F6F"/>
<ellipse cx="971.302" cy="187.002" rx="0.354565" ry="0.382036" fill="#6F6F6F"/>
<ellipse cx="537.893" cy="313.311" rx="0.354565" ry="0.382036" fill="#6F6F6F"/>
<ellipse cx="380.093" cy="7.89229" rx="0.354565" ry="0.382036" fill="#6F6F6F"/>
<ellipse cx="712.825" cy="136.191" rx="0.354565" ry="0.382036" fill="#6F6F6F"/>
<ellipse cx="279.416" cy="262.501" rx="0.354565" ry="0.382036" fill="#6F6F6F"/>
<ellipse cx="718.497" cy="569.802" rx="0.354565" ry="0.382036" fill="#6F6F6F"/>
<ellipse cx="285.089" cy="696.111" rx="0.354565" ry="0.382036" fill="#6F6F6F"/>
<ellipse cx="0.534377" cy="0.564375" rx="0.534377" ry="0.564375" transform="matrix(0.920874 -0.389859 0.342594 0.939484 1063.3 318.698)" fill="#6F6F6F"/>
<ellipse cx="0.534377" cy="0.564375" rx="0.534377" ry="0.564375" transform="matrix(0.920874 -0.389859 0.342594 0.939484 629.894 445.008)" fill="#6F6F6F"/>
<ellipse cx="0.534377" cy="0.564375" rx="0.534377" ry="0.564375" transform="matrix(0.920874 -0.389859 0.342594 0.939484 472.094 139.589)" fill="#6F6F6F"/>
<ellipse cx="1290.06" cy="144.787" rx="0.354565" ry="0.573054" fill="#6F6F6F"/>
<ellipse cx="605.037" cy="574.96" rx="0.709129" ry="0.573054" fill="#6F6F6F"/>
<ellipse cx="171.628" cy="701.269" rx="0.709129" ry="0.573054" fill="#6F6F6F"/>
<ellipse cx="0.799716" cy="1.13108" rx="0.799716" ry="1.13108" transform="matrix(0.938465 -0.345373 0.302177 0.953252 940.868 456.402)" fill="#6F6F6F"/>
<ellipse cx="0.799716" cy="1.13108" rx="0.799716" ry="1.13108" transform="matrix(0.938465 -0.345373 0.302177 0.953252 507.459 582.711)" fill="#6F6F6F"/>
<ellipse cx="1473.9" cy="687.087" rx="0.886412" ry="1.14611" fill="#6F6F6F"/>
<ellipse cx="0.797339" cy="1.13406" rx="0.797339" ry="1.13406" transform="matrix(0.96076 0.27738 -0.241331 0.970443 1467.87 543.494)" fill="#6F6F6F"/>
<ellipse cx="0.843063" cy="1.07366" rx="0.843063" ry="1.07366" transform="matrix(0.412349 0.911026 -0.885225 0.465163 1359.39 429.529)" fill="#6F6F6F"/>
<ellipse cx="0.853412" cy="1.05902" rx="0.853412" ry="1.05902" transform="matrix(-0.12712 0.991887 -0.989111 -0.147168 1424.33 412.254)" fill="#6F6F6F"/>
<ellipse cx="1082.64" cy="620.422" rx="0.709129" ry="0.955089" fill="#6F6F6F"/>
<ellipse cx="649.227" cy="746.731" rx="0.709129" ry="0.955089" fill="#6F6F6F"/>
<ellipse cx="0.53024" cy="0.568263" rx="0.53024" ry="0.568263" transform="matrix(0.979092 0.203417 -0.176157 0.984362 996.861 215.795)" fill="#6F6F6F"/>
<ellipse cx="0.53024" cy="0.568263" rx="0.53024" ry="0.568263" transform="matrix(0.979092 0.203417 -0.176157 0.984362 563.452 342.104)" fill="#6F6F6F"/>
<ellipse cx="0.53024" cy="0.568263" rx="0.53024" ry="0.568263" transform="matrix(0.979092 0.203417 -0.176157 0.984362 405.652 36.6855)" fill="#6F6F6F"/>
<ellipse cx="1237.23" cy="565.217" rx="0.354565" ry="0.764071" fill="#6F6F6F"/>
<ellipse cx="600.073" cy="134.663" rx="0.709129" ry="0.764071" fill="#6F6F6F"/>
<ellipse cx="166.664" cy="260.973" rx="0.709129" ry="0.764071" fill="#6F6F6F"/>
<ellipse cx="0.565175" cy="0.53353" rx="0.565175" ry="0.53353" transform="matrix(0.315361 -0.948972 0.932972 0.359949 1068.13 419.824)" fill="#6F6F6F"/>
<ellipse cx="0.565175" cy="0.53353" rx="0.565175" ry="0.53353" transform="matrix(0.315361 -0.948972 0.932972 0.359949 634.724 546.133)" fill="#6F6F6F"/>
<ellipse cx="0.565175" cy="0.53353" rx="0.565175" ry="0.53353" transform="matrix(0.315361 -0.948972 0.932972 0.359949 476.924 240.714)" fill="#6F6F6F"/>
<ellipse cx="0.53024" cy="0.568263" rx="0.53024" ry="0.568263" transform="matrix(0.979092 0.203417 -0.176157 0.984362 969.635 319.792)" fill="#6F6F6F"/>
<ellipse cx="0.53024" cy="0.568263" rx="0.53024" ry="0.568263" transform="matrix(0.979092 0.203417 -0.176157 0.984362 536.226 446.101)" fill="#6F6F6F"/>
<ellipse cx="0.53024" cy="0.568263" rx="0.53024" ry="0.568263" transform="matrix(0.979092 0.203417 -0.176157 0.984362 378.426 140.682)" fill="#6F6F6F"/>
<ellipse cx="1228.72" cy="672.952" rx="0.709129" ry="0.764071" fill="#6F6F6F"/>
<ellipse cx="1431.88" cy="135.045" rx="0.354565" ry="0.764071" fill="#6F6F6F"/>
<ellipse cx="1188.65" cy="160.833" rx="0.709129" ry="0.573054" fill="#6F6F6F"/>
<ellipse cx="591.563" cy="208.014" rx="0.354565" ry="0.764071" fill="#6F6F6F"/>
<ellipse cx="158.154" cy="334.323" rx="0.354565" ry="0.764071" fill="#6F6F6F"/>
<ellipse cx="0.354565" cy="28.9042" rx="0.354565" ry="0.764071" fill="#6F6F6F"/>
<ellipse cx="0.533144" cy="0.56554" rx="0.533144" ry="0.56554" transform="matrix(0.938465 -0.345373 0.302177 0.953252 1089.91 417.204)" fill="#6F6F6F"/>
<ellipse cx="0.533144" cy="0.56554" rx="0.533144" ry="0.56554" transform="matrix(0.938465 -0.345373 0.302177 0.953252 656.5 543.513)" fill="#6F6F6F"/>
<ellipse cx="0.533144" cy="0.56554" rx="0.533144" ry="0.56554" transform="matrix(0.938465 -0.345373 0.302177 0.953252 498.7 238.094)" fill="#6F6F6F"/>
<ellipse cx="1063.84" cy="138.675" rx="0.709129" ry="0.573054" fill="#6F6F6F"/>
<ellipse cx="630.435" cy="264.984" rx="0.709129" ry="0.573054" fill="#6F6F6F"/>
<ellipse cx="818.484" cy="624.433" rx="0.354565" ry="0.764071" fill="#6F6F6F"/>
<ellipse cx="385.076" cy="750.742" rx="0.354565" ry="0.764071" fill="#6F6F6F"/>
<ellipse cx="947.546" cy="800.169" rx="0.354565" ry="0.382036" fill="#6F6F6F"/>
<ellipse cx="1178.72" cy="356.817" rx="0.709129" ry="0.573054" fill="#6F6F6F"/>
</svg>
